<svg width="179" height="85" viewBox="0 0 179 85" fill="none" xmlns="http://www.w3.org/2000/svg">
<g filter="url(#filter0_d_136:107)">
<path d="M174 10.5698C162.971 9.07293 159.754 8.4438 148.594 7.46755C141.569 6.86011 132.28 5.66692 125.978 8.31363C119.971 10.8302 115.408 17.0131 112.749 21.135C107.924 28.6412 106.546 36.1258 102.016 43.6754C95.7792 54.0887 82.6494 59.8377 67.0249 62.7881C56.3898 64.3067 45.689 64.567 35.4478 67.0619C30.2615 68.3201 25.4363 69.535 20.5454 71.2489C19.7577 71.5309 7.74389 76.0216 7.74389 75.9999C8.26908 74.503 12.6347 72.3987 14.079 71.4224C18.2149 68.6022 22.3836 65.8036 26.5195 62.9833C35.2836 57.0391 44.1134 51.1165 52.8119 45.1289C65.0555 36.7332 77.2334 26.667 84.7502 16.0585C87.967 11.5027 89.1158 5.88387 95.7136 2.78158C101.655 -0.0169899 109.139 0.980949 115.704 2.39108C118.362 2.97683 124.829 4.56051 126.634 6.18759C129.917 9.13801 122.433 6.64317 115.408 6.83842C111.995 6.92519 110.353 7.96652 109.697 8.63904C108.417 9.9407 110.32 12.4139 113.34 10.2227C116.853 7.68449 104.707 5.88387 102.377 5.97064C87.409 6.513 102.278 19.6164 97.3548 25.5389C94.4991 28.9883 75.5921 22.1112 70.8326 20.7445C63.9723 18.792 55.9631 17.3602 49.3982 16.449C47.7241 16.2104 23.4996 14.2145 22.4821 14.6918C18.6744 16.449 49.6608 23.5214 54.0921 24.7796C56.8822 25.5606 72.9333 27.5999 69.3883 24.3023C67.1234 22.2197 52.9104 22.7404 48.676 22.5234C37.9424 21.9811 5.80724 23.3261 5.05227 24.4759C3.90341 26.2114 22.0554 28.9449 23.9264 29.4656C30.3271 31.2011 37.089 32.0255 43.2272 34.1516C48.3806 35.9305 55.7005 41.0721 36.9905 44.5432" stroke="#7B4F1F" stroke-miterlimit="10" shape-rendering="crispEdges"/>
</g>
<defs>
<filter id="filter0_d_136:107" x="0.5" y="0.500061" width="177.567" height="83.9987" filterUnits="userSpaceOnUse" color-interpolation-filters="sRGB">
<feFlood flood-opacity="0" result="BackgroundImageFix"/>
<feColorMatrix in="SourceAlpha" type="matrix" values="0 0 0 0 0 0 0 0 0 0 0 0 0 0 0 0 0 0 127 0" result="hardAlpha"/>
<feOffset dy="4"/>
<feGaussianBlur stdDeviation="2"/>
<feComposite in2="hardAlpha" operator="out"/>
<feColorMatrix type="matrix" values="0 0 0 0 0 0 0 0 0 0 0 0 0 0 0 0 0 0 0.25 0"/>
<feBlend mode="normal" in2="BackgroundImageFix" result="effect1_dropShadow_136:107"/>
<feBlend mode="normal" in="SourceGraphic" in2="effect1_dropShadow_136:107" result="shape"/>
</filter>
</defs>
</svg>
